<?xml version="1.0" encoding="UTF-8" standalone="no"?>
<svg
   xmlns:dc="http://purl.org/dc/elements/1.1/"
   xmlns:cc="http://creativecommons.org/ns#"
   xmlns:rdf="http://www.w3.org/1999/02/22-rdf-syntax-ns#"
   xmlns:svg="http://www.w3.org/2000/svg"
   xmlns="http://www.w3.org/2000/svg"
   xmlns:sodipodi="http://sodipodi.sourceforge.net/DTD/sodipodi-0.dtd"
   xmlns:inkscape="http://www.inkscape.org/namespaces/inkscape"
   version="1.1"
   width="32"
   height="32"
   viewBox="0 0 32 32"
   id="svg6"
   sodipodi:docname="turtle.svg"
   inkscape:version="0.92.4 (unknown)">
  <metadata
     id="metadata12">
    <rdf:RDF>
      <cc:Work
         rdf:about="">
        <dc:format>image/svg+xml</dc:format>
        <dc:type
           rdf:resource="http://purl.org/dc/dcmitype/StillImage" />
      </cc:Work>
    </rdf:RDF>
  </metadata>
  <defs
     id="defs10" />
  <sodipodi:namedview
     pagecolor="#ffffff"
     bordercolor="#666666"
     borderopacity="1"
     objecttolerance="10"
     gridtolerance="10"
     guidetolerance="10"
     inkscape:pageopacity="0"
     inkscape:pageshadow="2"
     inkscape:window-width="771"
     inkscape:window-height="480"
     id="namedview8"
     showgrid="false"
     inkscape:zoom="2.6074563"
     inkscape:cx="42.084106"
     inkscape:cy="2.0368525"
     inkscape:window-x="0"
     inkscape:window-y="0"
     inkscape:window-maximized="0"
     inkscape:current-layer="svg6" />
  <title
     id="title2">turtle</title>
  <path
     d="m 6.2202894,26.938455 q -0.3083657,0 -0.4838146,-0.103722 -0.1754416,-0.103723 -0.1754416,-0.285244 0,-0.142621 0.1275958,-0.285244 0.2126599,-0.272279 0.4306407,-0.849249 0.2179808,-0.576971 0.3136795,-1.108562 L 6.9539747,21.065023 Q 6.8689108,21.000193 6.65093,20.844606 6.4329492,20.689019 6.3638339,20.630673 6.2946897,20.572332 6.1458531,20.416741 5.9969876,20.261152 5.938507,20.112048 5.8800338,19.962944 5.8055902,19.723079 5.7311611,19.483215 5.688629,19.159073 H 3.1898278 q -0.7230578,0 -0.7230578,-0.350071 0,-0.453797 0.9995191,-1.251184 0.999519,-0.797386 2.2223399,-1.406771 V 15.78801 q 0,-1.555876 0.4040573,-3.001545 0.4040644,-1.445668 1.1909238,-2.638506 0.786852,-1.1928382 1.8714419,-2.0809843 1.084583,-0.8881455 2.520064,-1.3808397 1.435481,-0.4926942 3.051724,-0.4926942 1.31852,0 2.504123,0.3630376 1.185598,0.363038 2.105369,1.0048369 0.919771,0.6417987 1.685361,1.5364275 0.76559,0.8946288 1.302566,1.9189132 0.536977,1.024285 0.898505,2.191192 0.457227,0.609386 0.967621,0.609386 0.574193,0 0.914454,-0.816836 l 0.01064,-0.0778 q 0.116965,-0.829799 0.276464,-1.367873 0.159497,-0.538074 0.40406,-0.849249 0.244564,-0.311175 0.536976,-0.434349 0.292414,-0.123174 0.717742,-0.123174 0.297729,0 0.765589,0.06483 0.0638,0.01297 0.191397,0.04538 0.127599,0.03242 0.478493,0.129656 0.350896,0.09724 0.675209,0.200968 0.324312,0.103722 0.717741,0.272278 0.393427,0.168553 0.675207,0.337106 0.281779,0.168553 0.473177,0.388969 0.191398,0.220415 0.180764,0.440831 -0.01063,0.427867 -0.03189,0.739042 -0.02127,0.311175 -0.05848,0.589937 -0.03722,0.27876 -0.05848,0.421382 -0.02127,0.142622 -0.08506,0.466763 -0.0638,0.324141 -0.0957,0.492694 -0.0957,0.557522 -0.324313,0.739041 -0.228615,0.181518 -0.717741,0.181518 l -1.435481,0.129657 q -0.967621,0.246347 -2.153222,1.147459 -1.1856,0.901112 -2.100055,1.983742 -0.914455,1.082629 -1.265351,1.938362 l 0.36153,2.217123 q 0.05316,0.350072 0.175447,0.726076 0.122282,0.376004 0.271146,0.700145 0.148865,0.32414 0.287097,0.492693 0.127599,0.155588 0.127599,0.285245 0,0.11669 -0.07443,0.194483 -0.07443,0.07779 -0.223298,0.123174 -0.148864,0.04538 -0.361528,0.04538 H 21.31945 q -0.29773,0 -0.473179,-0.09724 -0.175447,-0.09724 -0.175447,-0.265794 0,-0.129657 0.116965,-0.285245 0.116967,-0.129657 0.196714,-0.356555 0.07975,-0.226898 0.127598,-0.499176 0.04785,-0.272279 0.04785,-0.557524 0,-0.272278 -0.04253,-0.50566 l -0.180764,-1.076146 q -1.095218,0.427866 -2.5307,0.648281 l -0.276461,1.72443 q -0.04253,0.246347 -0.04253,0.505659 0,0.440831 0.0957,0.823317 0.0957,0.382488 0.265828,0.589937 0.1276,0.155588 0.1276,0.285244 0,0.168553 -0.175449,0.265796 -0.175447,0.09724 -0.48381,0.09724 h -2.126639 q -0.308359,0 -0.483807,-0.09724 -0.175449,-0.09724 -0.175449,-0.265796 0,-0.129656 0.127595,-0.285244 0.223302,-0.272279 0.441283,-0.836283 0.217981,-0.564005 0.303045,-1.08263 l 0.244553,-1.491051 q -0.776225,0.0389 -1.53118,0.0389 -1.063321,0 -2.147912,-0.09076 l 0.04254,0.246346 q 0.05314,0.337108 0.175449,0.719594 0.122282,0.382486 0.271148,0.706627 0.148865,0.324141 0.287096,0.492694 0.127602,0.155588 0.127602,0.285245 0,0.168552 -0.175448,0.265794 -0.175449,0.09724 -0.483815,0.09724 h -2.126634 q -0.297731,0 -0.47318,-0.09724 -0.175449,-0.09724 -0.175449,-0.265794 0,-0.129657 0.116969,-0.285245 0.11696,-0.129657 0.202024,-0.356554 0.08507,-0.226899 0.127604,-0.499177 0.04254,-0.272278 0.04254,-0.557523 0,-0.272278 -0.04254,-0.505661 L 10.39917,22.530137 Q 9.6122903,22.374554 8.9211298,22.154138 l -0.3615253,2.217124 q -0.042539,0.246347 -0.042539,0.505659 0,0.440831 0.095699,0.823317 0.095699,0.382488 0.2658266,0.589938 0.1276031,0.155587 0.1276031,0.285244 0,0.168553 -0.1754488,0.265795 -0.1754488,0.09724 -0.4838146,0.09724 z"
     id="path4"
     inkscape:connector-curvature="0"
     style="stroke-width:0.01174164" />
</svg>
