<?xml version="1.0" encoding="UTF-8" standalone="no"?>
<svg
   xmlns:dc="http://purl.org/dc/elements/1.1/"
   xmlns:cc="http://creativecommons.org/ns#"
   xmlns:rdf="http://www.w3.org/1999/02/22-rdf-syntax-ns#"
   xmlns:svg="http://www.w3.org/2000/svg"
   xmlns="http://www.w3.org/2000/svg"
   xmlns:sodipodi="http://sodipodi.sourceforge.net/DTD/sodipodi-0.dtd"
   xmlns:inkscape="http://www.inkscape.org/namespaces/inkscape"
   enable-background="new 0 0 128 128"
   id="Social_Icons"
   version="1.1"
   viewBox="0 0 128 128"
   xml:space="preserve"
   sodipodi:docname="google-login.svg"
   inkscape:version="0.92.3 (unknown)"><metadata
     id="metadata19"><rdf:RDF><cc:Work
         rdf:about=""><dc:format>image/svg+xml</dc:format><dc:type
           rdf:resource="http://purl.org/dc/dcmitype/StillImage" /><dc:title /></cc:Work></rdf:RDF></metadata><defs
     id="defs17" /><sodipodi:namedview
     pagecolor="#ffffff"
     bordercolor="#666666"
     borderopacity="1"
     objecttolerance="10"
     gridtolerance="10"
     guidetolerance="10"
     inkscape:pageopacity="0"
     inkscape:pageshadow="2"
     inkscape:window-width="1920"
     inkscape:window-height="997"
     id="namedview15"
     showgrid="false"
     inkscape:zoom="1.84375"
     inkscape:cx="-34.630803"
     inkscape:cy="63.699718"
     inkscape:window-x="0"
     inkscape:window-y="0"
     inkscape:window-maximized="1"
     inkscape:current-layer="Social_Icons" /><g
     id="_x31__stroke"><g
       id="Google"><rect
         height="128"
         width="128"
         id="rect2"
         x="0"
         y="0"
         style="clip-rule:evenodd;fill:none;fill-rule:evenodd" /><path
         d="m 27.585,64 c 0,-4.157 0.69,-8.143 1.923,-11.881 L 7.938,35.648 C 3.734,44.183 1.366,53.801 1.366,64 c 0,10.191 2.366,19.802 6.563,28.332 L 29.487,75.829 C 28.266,72.108 27.585,68.137 27.585,64"
         id="path4"
         inkscape:connector-curvature="0"
         style="clip-rule:evenodd;fill:#fbbc05;fill-rule:evenodd" /><path
         d="m 65.457,26.182 c 9.031,0 17.188,3.2 23.597,8.436 L 107.698,16 C 96.337,6.109 81.771,0 65.457,0 40.129,0 18.361,14.484 7.938,35.648 l 21.569,16.471 c 4.97,-15.086 19.137,-25.937 35.95,-25.937"
         id="path6"
         inkscape:connector-curvature="0"
         style="clip-rule:evenodd;fill:#ea4335;fill-rule:evenodd" /><path
         d="m 65.457,101.818 c -16.812,0 -30.979,-10.851 -35.949,-25.937 L 7.938,92.349 C 18.361,113.516 40.129,128 65.457,128 c 15.632,0 30.557,-5.551 41.758,-15.951 L 86.741,96.221 c -5.777,3.639 -13.052,5.597 -21.284,5.597"
         id="path8"
         inkscape:connector-curvature="0"
         style="clip-rule:evenodd;fill:#34a853;fill-rule:evenodd" /><path
         d="m 126.634,64 c 0,-3.782 -0.583,-7.855 -1.457,-11.636 h -59.72 v 24.727 h 34.376 c -1.719,8.431 -6.397,14.912 -13.092,19.13 l 20.474,15.828 C 118.981,101.129 126.634,84.861 126.634,64"
         id="path10"
         inkscape:connector-curvature="0"
         style="clip-rule:evenodd;fill:#4285f4;fill-rule:evenodd" /></g></g></svg>