<?xml version="1.0" standalone="no"?>
<!DOCTYPE svg PUBLIC "-//W3C//DTD SVG 20010904//EN"
 "http://www.w3.org/TR/2001/REC-SVG-20010904/DTD/svg10.dtd">
<svg version="1.0" xmlns="http://www.w3.org/2000/svg"
 width="772.000000pt" height="1108.000000pt" viewBox="0 0 772.000000 1108.000000"
 preserveAspectRatio="xMidYMid meet">

<g transform="translate(0.000000,1108.000000) scale(0.100000,-0.100000)"
fill="#000000" stroke="none">
<path d="M950 5685 l0 -2975 2930 0 2930 0 0 2975 0 2975 -2930 0 -2930 0 0
-2975z m3068 1308 c59 -4 82 -10 82 -19 0 -8 5 -14 10 -14 6 0 10 5 10 10 0
13 26 13 67 -2 21 -8 33 -19 33 -30 0 -10 7 -18 17 -18 9 0 14 -3 11 -6 -10
-9 -98 7 -98 18 0 6 6 8 14 5 8 -3 17 1 20 9 7 18 -3 18 -43 -2 -22 -11 -46
-14 -74 -10 -80 11 -253 7 -342 -8 -116 -20 -145 -20 -145 -1 0 13 -4 14 -21
5 -23 -13 -41 -4 -20 9 17 11 204 51 236 51 16 0 25 -6 25 -16 0 -8 5 -12 10
-9 6 4 8 10 5 15 -10 17 81 23 203 13z m286 -49 c9 -3 13 -10 10 -16 -3 -5
-11 -4 -20 3 -11 9 -14 9 -14 -1 0 -8 -3 -11 -6 -7 -3 3 -3 10 1 16 7 13 8 13
29 5z m64 -34 c7 -11 19 -20 28 -20 8 0 12 5 9 10 -7 12 2 12 30 0 19 -8 19
-9 -1 -9 -12 -1 -25 -8 -28 -17 -4 -11 -13 -13 -28 -9 -26 8 -59 45 -52 57 9
14 29 8 42 -12z m-461 -7 c-11 -3 -16 -11 -13 -19 4 -11 -8 -14 -57 -15 -34
-1 -71 -3 -82 -5 -11 -1 -41 -4 -67 -6 -27 -2 -48 -6 -48 -10 0 -5 -4 -8 -10
-8 -5 0 -10 9 -10 19 0 16 11 22 53 30 78 16 288 28 234 14z m137 -2 c3 -4 17
-6 31 -3 27 5 35 -12 9 -22 -9 -3 -49 -6 -90 -6 -72 0 -74 1 -64 20 8 16 21
20 60 20 27 0 51 -4 54 -9z m-529 -11 c3 -6 -1 -13 -10 -16 -19 -8 -30 0 -20
15 8 14 22 14 30 1z m744 -21 c32 -11 39 -23 20 -34 -5 -4 -18 0 -28 9 -10 9
-25 16 -34 16 -9 0 -17 5 -17 10 0 13 19 13 59 -1z m234 5 c9 -3 13 -13 9 -26
-4 -18 -2 -19 16 -9 17 9 19 8 15 -9 -7 -25 -10 -25 -69 2 l-49 23 33 3 c18 2
30 8 27 13 -7 10 -3 11 18 3z m-896 -24 c28 0 5 -13 -55 -32 -43 -13 -58 -14
-64 -5 -5 8 -8 7 -8 -4 0 -22 -22 -30 -57 -19 -23 7 -16 15 10 11 4 -1 15 6
24 15 10 10 25 13 40 10 15 -4 22 -2 21 5 -3 13 39 29 60 23 8 -2 21 -4 29 -4z
m383 -10 c0 -5 -9 -10 -20 -10 -11 0 -20 5 -20 10 0 6 9 10 20 10 11 0 20 -4
20 -10z m70 0 c0 -5 -2 -10 -4 -10 -3 0 -8 5 -11 10 -3 6 -1 10 4 10 6 0 11
-4 11 -10z m286 1 c-4 -5 0 -11 6 -14 7 -2 10 -7 6 -11 -7 -8 -48 15 -48 26 0
5 9 8 21 8 11 0 18 -4 15 -9z m-507 -17 c29 -21 12 -34 -35 -27 -35 6 -36 3
-46 -61 -5 -30 -27 -30 -34 0 -9 37 6 76 36 91 33 17 51 16 79 -3z m141 -35
c0 -25 -3 -30 -16 -25 -12 5 -15 2 -10 -11 6 -14 4 -15 -5 -6 -14 14 -3 67 11
58 6 -3 10 -1 10 4 0 6 2 11 5 11 3 0 5 -14 5 -31z m97 9 c-3 -8 -6 -5 -6 6
-1 11 2 17 5 13 3 -3 4 -12 1 -19z m371 7 c9 -8 -10 -24 -23 -20 -8 3 -22 7
-31 10 -26 8 -4 27 25 20 14 -4 28 -8 29 -10z m-1138 -5 c0 -5 -5 -10 -11 -10
-5 0 -7 5 -4 10 3 6 8 10 11 10 2 0 4 -4 4 -10z m936 -8 c16 -13 23 -33 28
-79 7 -59 6 -63 -14 -63 -11 0 -20 7 -20 15 0 19 -46 31 -65 15 -9 -7 -20 -8
-30 -3 -13 8 -9 17 25 63 22 29 40 57 40 62 0 13 13 9 36 -10z m-1008 -8 c15
-15 14 -18 -13 -40 -19 -15 -39 -23 -55 -21 -14 2 -19 2 -12 0 19 -7 12 -17
-41 -57 -53 -41 -57 -42 -57 -21 0 8 -8 15 -17 15 -13 0 -14 -3 -5 -12 18 -18
14 -35 -9 -41 -12 -3 -18 -10 -15 -15 3 -5 -17 -31 -45 -57 -36 -34 -53 -44
-59 -35 -5 8 -10 3 -14 -14 -4 -15 -17 -31 -29 -35 -19 -8 -20 -10 -5 -16 16
-6 14 -12 -14 -51 -28 -40 -32 -42 -44 -26 -21 26 -17 41 23 91 66 84 209 226
226 226 7 0 15 8 19 18 4 9 16 20 25 24 10 4 21 10 24 15 5 7 89 65 97 67 2 1
11 -6 20 -15z m29 10 c-3 -3 -12 -4 -19 -1 -8 3 -5 6 6 6 11 1 17 -2 13 -5z
m793 -24 c15 -27 3 -60 -20 -60 -10 0 -20 -5 -22 -11 -2 -7 -12 -7 -32 0 -34
14 -29 37 9 34 22 -2 29 4 38 27 13 36 13 36 27 10z m416 -7 c-10 -10 -19 5
-10 18 6 11 8 11 12 0 2 -7 1 -15 -2 -18z m124 17 c0 -5 -2 -10 -4 -10 -3 0
-8 5 -11 10 -3 6 -1 10 4 10 6 0 11 -4 11 -10z m-1052 -17 c2 -8 -6 -13 -22
-13 -28 0 -43 15 -24 23 20 8 41 3 46 -10z m-216 -23 c-9 -11 -23 -20 -32 -20
-10 0 -7 7 10 24 29 28 47 24 22 -4z m77 26 c-2 -2 -15 -9 -29 -16 -23 -12
-24 -12 -11 3 7 10 20 17 29 17 8 0 13 -2 11 -4z m461 -18 c0 -29 -9 -42 -39
-58 -20 -10 -26 -9 -45 10 -15 15 -17 21 -6 20 29 -4 50 0 50 10 0 6 -9 10
-20 10 -11 0 -20 7 -20 15 0 11 11 15 40 15 35 0 40 -3 40 -22z m-384 -3 c9
-8 11 -15 5 -15 -6 0 -8 -7 -4 -16 3 -9 12 -13 22 -8 38 16 51 16 51 1 0 -8
-9 -17 -19 -20 -13 -3 -19 -13 -18 -26 2 -25 13 -27 34 -6 14 15 33 12 33 -5
0 -6 -70 -40 -84 -40 -1 0 -9 19 -16 43 -8 23 -20 52 -28 64 -7 12 -11 27 -7
33 8 14 14 13 31 -5z m1223 -9 c11 -8 13 -8 7 2 -14 24 13 11 73 -34 34 -25
61 -52 61 -60 0 -9 4 -12 10 -9 14 9 60 -44 53 -61 -3 -8 -13 -14 -22 -14 -18
1 -81 54 -81 70 0 5 -5 10 -11 10 -22 0 -68 41 -62 55 3 8 0 15 -7 15 -6 0 -8
-4 -5 -10 10 -16 -11 -11 -26 6 -7 9 -24 20 -37 25 -13 5 -21 13 -18 18 7 11
45 3 65 -13z m-284 8 c10 -4 12 -9 7 -13 -6 -3 -13 -18 -17 -32 -5 -20 -2 -28
11 -33 23 -9 41 9 26 26 -7 9 -7 19 -2 28 8 12 10 12 10 -4 0 -12 5 -16 15
-12 9 3 15 0 15 -9 0 -8 -6 -15 -12 -15 -9 0 -9 -3 1 -9 12 -8 12 -12 2 -25
-8 -9 -20 -16 -28 -16 -11 0 -14 -8 -11 -29 3 -24 1 -27 -15 -23 -15 4 -18 12
-15 42 4 40 -16 46 -27 9 -6 -19 -30 -26 -38 -11 -5 7 48 132 57 132 2 0 12
-3 21 -6z m-1142 -28 c5 -14 -31 -46 -51 -46 -5 0 -15 -7 -22 -15 -15 -18 -40
-20 -40 -2 0 11 86 77 101 77 4 0 9 -6 12 -14z m1366 -17 c17 -13 31 -27 31
-33 0 -5 3 -6 6 -3 11 11 64 -33 64 -54 0 -10 -3 -19 -6 -19 -12 0 -152 111
-157 124 -8 21 25 13 62 -15z m-1300 -36 c6 -16 20 -39 30 -52 15 -19 21 -22
38 -12 17 8 22 7 27 -4 4 -10 -7 -21 -34 -35 l-39 -20 -37 66 c-30 53 -34 68
-23 75 21 13 26 11 38 -18z m678 -7 c4 -5 2 -11 -4 -13 -7 -3 -13 -10 -13 -17
0 -8 -23 -12 -70 -13 -38 -1 -70 0 -70 2 0 2 5 16 10 31 10 25 13 26 75 22 35
-2 68 -8 72 -12z m-182 -11 l-30 -13 24 -10 25 -9 -25 -6 c-69 -16 -119 -19
-119 -6 0 8 -6 5 -15 -7 -14 -18 -14 -17 -15 13 0 31 1 32 58 38 31 4 62 8 67
10 6 2 21 3 35 3 24 0 24 0 -5 -13z m335 -10 c91 -25 139 -45 72 -30 -24 5
-33 3 -38 -9 -7 -18 -39 -22 -49 -6 -4 6 -15 8 -25 5 -18 -6 -97 8 -108 20 -4
3 0 10 7 14 7 5 10 14 7 20 -11 18 31 13 134 -14z m440 0 c7 -8 8 -15 3 -15
-6 0 -23 -18 -39 -41 -23 -34 -25 -42 -13 -50 20 -13 51 -7 59 11 4 8 12 25
19 38 7 14 7 22 1 22 -5 0 -10 6 -10 13 1 6 10 1 21 -12 38 -46 -10 -125 -68
-115 -32 6 -83 35 -83 47 0 15 75 116 86 117 6 0 17 -7 24 -15z m-1039 -91
c-143 -61 -288 -153 -335 -212 -11 -14 -35 -31 -53 -39 -19 -7 -31 -18 -28
-23 7 -12 -66 -111 -77 -104 -13 9 -9 24 7 24 8 0 15 5 15 11 0 6 -7 9 -15 6
-8 -4 -17 -2 -20 3 -4 6 6 10 20 10 22 0 25 3 20 20 -4 11 -3 20 2 19 20 -4
33 2 33 15 0 8 -5 16 -11 18 -12 4 124 138 140 138 6 0 11 -7 11 -16 0 -8 5
-12 10 -9 6 3 10 17 10 31 0 28 72 79 181 128 116 52 136 58 145 44 4 -7 11
-4 17 8 10 18 11 17 17 -6 6 -24 0 -27 -89 -66z m-356 46 c-4 -6 5 -26 19 -45
28 -36 34 -54 13 -36 -8 6 -17 7 -21 3 -4 -4 -18 6 -31 22 -20 24 -26 27 -39
17 -12 -10 -14 -9 -12 5 1 9 11 23 21 30 22 16 59 19 50 4z m1675 -130 c-12
-8 -11 -10 6 -10 27 0 78 -54 71 -74 -7 -17 -27 -22 -27 -8 0 5 -25 37 -56 71
-31 34 -57 72 -58 84 -1 16 -8 23 -28 25 -35 4 -58 30 -37 43 10 6 31 -9 79
-57 53 -52 62 -66 50 -74z m-1834 74 c-22 -23 -39 -32 -50 -28 -10 4 -16 1
-16 -7 0 -7 -3 -9 -7 -6 -9 9 27 48 38 41 5 -3 12 3 16 13 12 34 24 44 39 32
11 -9 7 -18 -20 -45z m1214 44 c0 -12 -16 -17 -38 -11 -12 3 -20 9 -17 13 6
10 55 8 55 -2z m-132 -24 c60 -13 72 -19 72 -36 0 -16 -5 -19 -22 -14 -112 30
-190 38 -308 33 -69 -4 -150 -13 -180 -22 -68 -18 -67 -18 -67 1 0 17 43 38
63 30 6 -2 16 0 21 5 30 30 286 32 421 3z m929 -152 c38 -52 43 -66 32 -74
-11 -8 -11 -9 2 -5 12 4 28 -18 65 -89 41 -80 46 -96 34 -104 -8 -5 -20 -10
-27 -10 -14 0 -45 59 -37 71 3 5 1 9 -3 9 -12 0 -93 145 -93 166 0 8 -4 13 -8
10 -5 -3 -19 8 -30 24 -18 23 -20 34 -12 55 6 17 6 25 -1 25 -6 0 -7 5 -3 11
4 8 0 9 -15 4 -17 -5 -21 -2 -21 17 -1 22 -1 22 -15 4 -13 -17 -15 -18 -21 -2
-3 9 0 24 7 32 12 15 18 11 57 -32 24 -26 64 -77 89 -112z m-561 87 c34 -23
41 -33 37 -54 -3 -14 -8 -25 -12 -25 -3 0 -33 18 -66 40 -33 22 -55 40 -49 40
7 0 14 6 17 13 4 10 -2 13 -18 9 -12 -2 -25 1 -29 6 -4 6 2 8 14 5 11 -3 20 0
20 6 0 14 23 3 86 -40z m-263 21 c3 -13 0 -20 -9 -20 -8 0 -14 9 -14 20 0 11
4 20 9 20 5 0 11 -9 14 -20z m-626 -4 c0 -8 -21 -22 -46 -32 -90 -34 -279
-165 -337 -234 -44 -52 -71 -78 -99 -96 -28 -18 -28 -18 -17 1 24 43 120 150
131 147 7 -1 10 2 7 6 -12 20 147 136 257 188 79 37 104 41 104 20z m1161 2
c7 -10 1 -22 -24 -48 -19 -19 -34 -28 -34 -21 0 7 -4 10 -10 6 -5 -3 -7 -12
-4 -19 8 -20 -21 -40 -34 -24 -8 10 2 27 36 65 51 57 54 59 70 41z m-388 -48
c47 -24 153 -103 211 -157 34 -32 45 -49 42 -64 -4 -14 -1 -18 10 -14 16 7 60
-42 51 -56 -3 -5 0 -8 7 -7 16 4 106 -157 114 -204 4 -21 11 -38 16 -38 6 0 7
-5 4 -10 -4 -6 -1 -18 6 -26 9 -11 9 -18 1 -26 -16 -16 -25 -4 -24 32 0 16 -4
30 -9 30 -5 0 -9 6 -9 14 0 8 -3 16 -7 18 -5 2 -21 32 -38 68 -16 36 -39 78
-50 93 -96 132 -192 224 -306 293 -35 21 -67 42 -70 47 -3 5 -9 8 -13 8 -18
-3 -26 0 -26 8 0 15 53 9 90 -9z m-1447 -27 c-8 -21 -24 -50 -35 -66 -20 -28
-78 -64 -78 -49 0 13 80 112 90 112 4 0 10 9 13 20 3 11 10 20 16 20 6 0 4
-15 -6 -37z m167 2 c0 -14 7 -28 15 -30 49 -16 48 -15 35 -31 -7 -8 -18 -13
-24 -11 -51 19 -55 19 -58 -13 l-3 -30 -32 31 c-35 32 -43 63 -17 73 8 3 12 2
9 -3 -6 -11 12 -25 37 -26 17 -2 34 38 23 55 -4 6 -1 10 4 10 6 0 11 -11 11
-25z m888 -13 c64 -42 131 -241 73 -216 -29 12 -95 25 -123 24 -18 0 -28 5
-28 14 0 21 -23 36 -40 26 -11 -7 -11 -11 -1 -23 6 -9 8 -18 3 -21 -17 -10
-90 -18 -94 -10 -10 18 14 93 45 144 50 83 103 103 165 62z m616 -41 c-5 -25
-5 -25 10 -7 14 17 16 18 16 3 0 -9 6 -17 14 -17 23 0 117 -111 111 -131 -3
-9 1 -24 10 -32 8 -9 15 -20 15 -25 0 -5 7 -9 16 -8 19 1 97 -131 89 -151 -2
-7 -1 -13 4 -13 11 0 41 -73 41 -99 0 -10 -7 -22 -16 -25 -8 -3 -12 -10 -9
-16 4 -6 10 -8 14 -6 18 11 36 -15 36 -53 0 -23 3 -41 8 -41 4 0 8 -24 7 -52
-1 -29 0 -60 1 -68 1 -8 1 -23 1 -34 -2 -15 -5 -16 -16 -7 -11 10 -15 8 -18
-6 -2 -10 2 -22 8 -28 6 -5 14 -22 18 -37 5 -23 3 -28 -13 -28 -14 0 -19 -5
-14 -16 3 -8 11 -13 18 -10 10 3 12 -6 7 -37 -3 -23 -9 -43 -13 -45 -4 -2 -5
-10 -3 -17 6 -15 -34 -105 -47 -105 -3 0 -12 6 -18 14 -9 11 -8 24 4 57 9 24
18 58 21 74 2 17 8 52 12 79 7 52 -1 232 -13 280 -7 27 -6 29 16 23 23 -6 23
-5 -3 16 -18 15 -29 33 -30 52 -3 63 -128 300 -201 381 -19 23 -9 42 16 28 8
-5 7 -2 -2 9 -10 13 -17 14 -26 7 -21 -18 -110 77 -110 117 0 29 1 30 22 15
17 -11 21 -21 17 -41z m281 -42 c-10 -19 -20 -26 -31 -22 -8 3 -13 12 -9 20 4
12 0 14 -19 9 -14 -3 -28 -2 -31 4 -10 16 -25 12 -25 -6 0 -10 6 -14 14 -11 8
3 17 0 20 -8 2 -7 14 -15 26 -17 26 -4 28 -20 3 -33 -10 -5 -21 -14 -25 -20
-4 -5 -10 -6 -14 -2 -4 4 -3 12 4 19 8 8 5 16 -13 29 -13 11 -30 19 -38 19 -8
0 -17 6 -20 14 -4 11 13 21 66 39 64 22 74 23 89 9 16 -13 16 -17 3 -43z
m-2139 6 c-3 -10 2 -18 14 -23 19 -7 19 -9 -6 -47 -14 -22 -23 -33 -21 -25 6
25 -16 40 -31 21 -7 -9 -1 8 14 37 26 49 43 71 30 37z m2325 -124 c11 -25 25
-55 31 -65 25 -47 56 -146 45 -146 -8 0 -8 -3 -2 -8 34 -25 61 -145 70 -313 7
-123 7 -126 -14 -132 -22 -5 -30 16 -11 28 6 3 10 11 10 16 0 6 -4 8 -9 5 -4
-3 -11 43 -14 102 -6 100 -33 241 -58 305 -9 20 -8 31 0 41 10 11 8 16 -9 21
-13 4 -19 12 -16 21 3 8 1 14 -5 14 -16 0 -28 43 -17 64 7 13 7 16 -2 11 -13
-8 -29 12 -72 87 -16 26 -24 50 -18 53 5 3 7 13 3 23 -10 31 66 -80 88 -127z
m-2105 79 c37 -26 44 -36 44 -65 0 -24 -7 -39 -26 -54 -29 -23 -50 -18 -110
23 l-35 23 27 6 c15 2 38 -2 54 -11 27 -16 60 -11 60 8 0 6 -20 24 -44 42 -27
18 -42 36 -39 44 8 20 19 17 69 -16z m-143 -6 c12 -4 8 -19 -23 -77 -21 -40
-55 -117 -75 -172 -20 -55 -45 -108 -56 -118 -14 -13 -16 -23 -9 -41 5 -14 5
-39 -1 -62 -4 -22 -9 -62 -9 -89 0 -28 -7 -60 -15 -71 -8 -12 -11 -24 -8 -28
3 -3 1 -6 -6 -6 -11 0 -9 108 5 205 17 114 105 355 130 355 8 0 14 6 14 14 0
8 6 17 13 20 9 5 9 7 0 12 -10 4 -9 12 2 35 17 32 17 32 38 23z m-105 -70 c6
3 -5 -31 -25 -76 -19 -46 -48 -130 -65 -188 -17 -58 -35 -109 -41 -115 -7 -7
-7 -5 -2 5 7 12 5 13 -6 2 -11 -10 -11 -16 -1 -33 9 -15 11 -41 6 -92 -6 -60
-11 -76 -33 -95 -23 -20 -26 -20 -30 -5 -2 10 2 19 8 21 7 2 9 16 5 37 -3 20
-1 35 6 40 8 5 8 10 0 20 -25 31 51 329 117 459 23 46 27 48 39 32 7 -10 17
-15 22 -12z m2272 15 c0 -6 -9 -13 -20 -16 -23 -6 -27 -33 -5 -33 19 0 19 -4
-1 -41 l-15 -30 30 15 c41 22 52 20 43 -4 -4 -12 -30 -34 -57 -49 -45 -26 -51
-27 -61 -12 -10 12 -7 25 12 64 l25 48 -30 -16 c-39 -20 -51 -19 -51 4 0 17
53 49 71 44 4 -1 15 7 24 17 20 22 35 26 35 9z m-1940 -59 c0 -5 -2 -10 -4
-10 -3 0 -8 5 -11 10 -3 6 -1 10 4 10 6 0 11 -4 11 -10z m489 -9 c50 -26 68
-48 55 -69 -11 -17 -51 -44 -93 -62 -19 -8 -22 -16 -18 -38 7 -36 -7 -62 -25
-44 -6 6 -20 12 -30 12 -24 0 -51 44 -43 70 4 13 2 20 -7 20 -10 0 -10 2 1 9
8 5 20 7 26 5 8 -4 11 4 10 20 -2 14 1 26 6 26 6 0 7 5 3 12 -5 7 -2 9 9 5 8
-3 21 1 28 9 7 8 19 12 28 9 13 -4 13 -2 -1 8 -17 13 -15 27 4 27 5 0 26 -9
47 -19z m856 -1 c3 -11 15 -20 25 -20 24 0 35 -17 21 -34 -12 -14 -5 -46 10
-46 4 0 6 7 3 15 -7 18 6 19 28 3 15 -12 15 -17 1 -58 -13 -39 -64 -98 -85
-100 -4 0 -15 14 -24 32 -9 18 -42 58 -72 90 -55 58 -55 58 -36 79 19 22 88
58 111 59 6 0 15 -9 18 -20z m-330 -27 c91 -28 208 -123 249 -202 15 -28 7
-46 -9 -21 -10 16 -25 12 -19 -5 10 -25 -4 -17 -73 41 -73 63 -151 101 -221
111 -44 6 -46 6 -29 -11 20 -20 22 -30 5 -20 -10 6 -10 4 0 -7 14 -16 17 -133
2 -124 -5 3 -7 0 -4 -9 3 -9 -3 -17 -16 -21 -12 -4 -19 -9 -17 -12 3 -2 15 0
26 7 20 10 21 9 21 -57 -1 -62 -2 -66 -15 -49 -8 11 -15 28 -15 39 0 10 -4 16
-9 12 -6 -3 -15 4 -21 15 -9 17 -14 19 -26 9 -12 -10 -14 1 -13 80 1 88 2 91
24 91 13 0 26 7 29 16 5 13 1 15 -18 12 -24 -5 -42 14 -31 31 9 15 -81 -7
-139 -33 -65 -30 -79 -29 -47 3 18 18 19 24 9 35 -11 12 -14 10 -18 -13 -3
-17 -12 -26 -25 -27 -11 -1 -28 -2 -37 -3 -10 -1 -18 -7 -18 -15 0 -8 -7 -17
-16 -20 -9 -4 -14 -9 -11 -13 4 -3 20 0 37 7 42 17 48 6 14 -24 -35 -30 -33
-30 -62 -8 l-23 18 39 43 c22 24 44 41 50 38 5 -4 12 1 14 11 11 40 218 117
218 81 0 -10 2 -11 8 -2 15 24 101 22 187 -4z m-1246 -24 c-8 -17 -3 -22 46
-43 30 -14 55 -29 55 -35 0 -22 -24 -22 -72 -1 -46 20 -52 20 -60 6 -8 -14
-38 -23 -38 -11 0 2 11 29 24 60 18 40 29 53 40 49 12 -5 13 -10 5 -25z m2391
-33 c-4 -4 -6 -15 -3 -23 5 -12 7 -12 15 -1 8 10 9 10 5 -2 -5 -21 -43 -25
-51 -5 -3 9 -2 13 4 10 6 -3 10 5 10 18 0 29 11 42 21 25 5 -7 4 -17 -1 -22z
m-2225 -108 c-18 -46 -44 -132 -56 -191 -18 -86 -25 -105 -36 -96 -7 6 -13 18
-13 25 0 8 -4 14 -10 14 -5 0 -10 7 -10 16 0 10 6 14 15 10 8 -3 15 -1 15 3 0
5 -5 11 -11 13 -20 7 1 75 27 87 27 12 32 31 8 31 -23 0 -14 41 31 137 l35 76
20 -20 c19 -21 19 -22 -15 -105z m101 68 c-42 -95 -69 -173 -87 -255 -15 -67
-28 -101 -37 -101 -32 0 19 227 75 332 17 31 30 45 40 41 8 -3 12 -11 9 -17z
m2150 -21 c-3 -8 -2 -15 3 -15 10 0 27 -56 47 -161 20 -101 23 -379 5 -454 -6
-27 -13 -64 -16 -82 -9 -55 -23 -83 -40 -77 -10 4 -15 19 -15 43 1 38 32 213
44 246 6 14 5 16 -2 7 -6 -10 -10 3 -11 42 -1 40 3 57 14 64 10 5 13 15 9 25
-3 9 -10 15 -14 12 -4 -2 -11 23 -14 58 -6 56 -33 199 -51 269 -6 22 -3 27 17
31 12 2 25 5 27 6 2 0 1 -6 -3 -14z m-138 -37 c10 -21 10 -33 2 -48 -16 -29
-30 -24 -30 11 0 39 -24 34 -28 -7 -2 -16 -8 -35 -14 -41 -37 -45 -101 36 -68
87 12 19 24 6 25 -25 0 -36 19 -36 23 0 5 41 20 57 51 53 17 -2 31 -13 39 -30z
m-798 -108 c0 -5 -2 -10 -4 -10 -3 0 -8 5 -11 10 -3 6 -1 10 4 10 6 0 11 -4
11 -10z m64 -45 c19 -45 23 -77 11 -81 -12 -4 -45 39 -50 64 -2 9 -4 22 -5 27
-9 40 27 32 44 -10z m-837 3 c-3 -8 -6 -5 -6 6 -1 11 2 17 5 13 3 -3 4 -12 1
-19z m1332 -27 c11 -7 15 -31 15 -87 1 -100 -18 -112 -28 -17 -4 37 -9 78 -13
91 -6 23 3 28 26 13z m-1376 -110 c-3 -31 -10 -50 -17 -48 -13 5 -8 69 6 78 7
4 6 8 -1 10 -7 3 -9 12 -5 23 13 33 24 -7 17 -63z m478 25 c15 -12 20 -20 12
-23 -10 -3 -10 -9 0 -24 10 -16 9 -21 -2 -28 -9 -6 -10 -11 -2 -15 15 -10 14
-89 -1 -104 -9 -9 -9 -12 0 -12 9 0 12 -41 12 -154 0 -170 1 -166 -65 -166
l-34 0 -1 205 c0 175 2 205 15 205 8 0 15 5 15 11 0 6 -7 9 -15 6 -11 -5 -14
5 -14 48 1 30 5 52 10 49 5 -3 6 2 3 10 -8 21 35 15 67 -8z m-1081 -42 c0 -8
-4 -14 -10 -14 -5 0 -10 9 -10 21 0 11 5 17 10 14 6 -3 10 -13 10 -21z m1510
16 c0 -5 -4 -10 -10 -10 -5 0 -10 5 -10 10 0 6 5 10 10 10 6 0 10 -4 10 -10z
m-1410 -70 c0 -43 -3 -50 -20 -50 -23 0 -24 3 -11 28 6 9 12 29 16 45 8 42 15
32 15 -23z m-71 -37 c-1 -127 39 -289 107 -428 47 -96 101 -173 178 -255 46
-48 48 -53 35 -76 l-13 -25 -49 48 c-183 177 -304 452 -308 694 -1 76 2 104
12 110 34 21 40 10 38 -68z m1976 -25 c-4 -35 -11 -64 -16 -66 -13 -5 -11 -30
4 -35 6 -3 3 -6 -9 -6 -20 -1 -21 3 -16 77 4 71 12 91 35 92 5 0 6 -28 2 -62z
m-2305 28 c0 -8 -5 -16 -12 -18 -10 -4 -9 -15 2 -49 8 -24 15 -70 15 -101 0
-32 3 -58 7 -58 4 0 12 -26 18 -57 6 -32 15 -70 20 -84 4 -15 4 -32 -1 -40 -5
-8 -9 -10 -9 -5 0 5 -7 3 -16 -4 -8 -8 -14 -9 -13 -4 1 5 -3 22 -10 38 -6 16
-10 35 -7 43 3 7 2 13 -3 13 -11 0 -35 125 -27 139 4 5 2 12 -3 15 -5 3 -9 25
-9 49 0 23 -3 52 -6 64 -3 16 -1 20 10 16 10 -4 12 0 8 11 -3 9 -4 23 0 31 7
19 36 20 36 1z m412 -130 c21 -132 75 -274 140 -373 59 -91 193 -228 261 -267
26 -15 44 -32 41 -37 -3 -5 0 -9 5 -9 6 0 11 -4 11 -10 0 -5 -5 -10 -12 -10
-17 0 -79 50 -73 60 7 12 -16 28 -50 34 -19 4 -53 30 -101 80 -112 118 -179
229 -229 386 -32 101 -46 250 -24 250 10 0 19 -30 31 -104z m2222 -5 c-8 -91
-22 -141 -39 -141 -18 0 -18 -2 -4 77 6 34 15 60 20 57 5 -3 9 -1 9 5 0 5 -4
13 -10 16 -5 3 -10 19 -10 35 0 23 4 27 20 23 17 -5 19 -12 14 -72z m-2579 59
c-3 -5 -1 -10 4 -10 6 0 11 -15 11 -32 0 -33 21 -145 39 -206 8 -26 7 -34 -5
-39 -8 -3 -17 -3 -19 -1 -11 10 -44 167 -45 213 -3 74 -1 85 11 85 5 0 7 -4 4
-10z m860 -39 c8 -27 31 -74 50 -105 19 -32 28 -56 22 -57 -7 0 -5 -3 3 -6 8
-3 32 -22 54 -41 21 -19 68 -48 105 -66 62 -29 73 -31 181 -31 l115 0 63 38
c35 20 67 37 73 37 5 0 8 4 7 8 -4 12 59 82 66 75 3 -4 6 1 6 10 0 9 9 31 20
49 11 18 20 40 20 49 0 9 7 19 15 23 9 3 15 0 15 -7 0 -8 11 -12 30 -11 17 1
30 -2 30 -7 0 -5 -14 -37 -31 -71 -24 -47 -33 -58 -41 -47 -8 11 -9 10 -4 -4
4 -13 -6 -33 -30 -63 -40 -49 -54 -55 -54 -23 0 16 -4 19 -22 13 -13 -3 -31
-13 -40 -21 -9 -8 -22 -12 -27 -8 -6 3 -14 -1 -17 -10 -4 -9 -13 -14 -20 -11
-8 3 -14 -1 -14 -9 0 -8 5 -15 12 -15 8 0 7 -6 -4 -16 -15 -15 -19 -15 -46 -1
-22 10 -32 12 -35 3 -3 -6 6 -12 21 -13 13 0 28 -7 32 -14 6 -9 19 -6 53 14
49 29 62 33 52 17 -13 -22 -108 -62 -136 -58 -15 3 -26 1 -23 -4 3 -4 -2 -8
-10 -8 -9 0 -16 7 -16 15 0 18 0 18 -36 1 -48 -24 -131 -15 -206 22 -86 42
-109 61 -155 130 -56 81 -87 155 -98 230 -9 56 0 53 20 -7z m891 35 c3 -8 1
-22 -4 -32 -8 -15 -11 -14 -30 6 -11 12 -25 19 -31 16 -7 -4 -8 -1 -5 8 8 20
63 21 70 2z m-92 -4 c6 -10 -70 -9 -80 1 -4 4 11 7 34 7 22 0 43 -4 46 -8z
m-82 -43 c16 -8 22 -8 29 2 4 7 11 10 14 7 4 -4 4 -12 0 -18 -9 -15 -87 -8
-93 8 -5 15 22 16 50 1z m658 -47 c0 -10 -7 -42 -16 -72 -14 -47 -17 -51 -31
-38 -14 15 -10 48 12 116 7 19 35 14 35 -6z m-1404 -144 c-10 -6 -20 -7 -24
-3 -9 8 20 25 31 18 5 -3 2 -10 -7 -15z m938 -10 c1 -18 7 -23 30 -23 16 -1
31 -6 34 -13 2 -7 0 -11 -5 -10 -4 1 -20 -6 -35 -16 -29 -19 -53 -13 -44 10 4
11 2 11 -13 2 -11 -6 -17 -18 -14 -25 3 -7 1 -13 -4 -13 -15 0 -9 48 8 68 8
10 18 26 22 36 9 23 19 15 21 -16z m426 10 c0 -19 -45 -112 -66 -136 -10 -12
-19 -28 -20 -37 -4 -30 -58 -99 -146 -187 -47 -49 -93 -88 -101 -88 -8 0 -17
-6 -20 -13 -2 -7 -22 -21 -43 -32 -21 -11 -53 -30 -71 -42 -31 -20 -193 -83
-214 -83 -19 0 -8 31 14 39 12 5 63 25 112 45 50 20 98 36 108 36 9 0 17 4 17
10 0 5 26 28 58 51 71 52 222 206 244 250 10 19 24 45 32 59 9 14 27 51 40 83
15 34 31 57 40 57 9 0 16 -6 16 -12z m54 -61 c4 -20 3 -37 -1 -36 -31 5 -55
-2 -49 -16 3 -9 0 -15 -10 -15 -8 0 -13 3 -11 8 7 12 35 76 41 96 9 26 22 10
30 -37z m-1384 22 c0 -5 26 -33 57 -63 57 -54 57 -55 39 -75 -11 -12 -24 -20
-30 -19 -21 4 -56 -13 -56 -28 0 -8 -4 -14 -10 -14 -5 0 -13 -1 -16 -2 -4 -2
-11 8 -15 21 -8 20 -7 23 11 18 32 -8 32 7 0 44 -16 19 -30 30 -30 24 -3 -27
-11 -59 -15 -63 -2 -3 -9 8 -15 23 -6 15 -19 29 -30 32 -24 6 -26 33 -4 74 12
24 18 28 29 19 10 -8 15 -8 20 0 9 14 47 29 58 23 4 -2 7 -8 7 -14z m1648 -14
c-1 -14 -6 -25 -10 -25 -4 0 -8 -7 -8 -15 0 -8 -4 -15 -9 -15 -6 0 -6 12 -1
30 15 53 31 67 28 25z m-948 -5 c0 -5 -9 -10 -21 -10 -11 0 -17 5 -14 10 3 6
13 10 21 10 8 0 14 -4 14 -10z m-1437 -150 c31 -63 83 -152 116 -198 34 -45
61 -89 61 -98 0 -8 5 -12 10 -9 6 3 10 -1 10 -9 0 -32 -27 -14 -84 58 -89 111
-154 228 -158 286 -1 16 -9 32 -16 35 -9 3 -12 13 -9 25 3 11 2 18 -3 15 -9
-6 -21 31 -12 39 8 9 24 -18 85 -144z m2482 133 c-4 -10 -8 -23 -8 -29 0 -6
-14 -11 -30 -12 l-30 -1 29 30 c31 32 50 38 39 12z m-767 -18 c0 -34 -21 -50
-47 -35 -17 8 -19 8 -15 -4 3 -8 0 -17 -7 -22 -8 -4 -10 -3 -5 4 4 7 3 12 -3
12 -6 0 -8 7 -5 15 4 8 10 15 15 15 5 0 18 9 29 20 27 27 38 25 38 -5z m-148
-5 c0 -5 -7 -10 -16 -10 -8 0 -12 -5 -8 -11 3 -6 18 -8 33 -5 14 3 21 3 14 0
-10 -4 -10 -10 0 -27 7 -12 16 -25 21 -29 14 -10 19 -58 5 -58 -6 0 -9 7 -5
15 6 17 -5 20 -21 4 -8 -8 -20 -6 -43 6 -26 14 -29 19 -19 31 10 13 10 17 -2
25 -8 5 -18 9 -24 9 -5 0 -3 -4 5 -10 8 -5 11 -12 7 -16 -4 -4 -13 -2 -19 4
-9 9 -4 20 22 47 34 35 50 43 50 25z m-1628 -135 c24 -48 36 -81 29 -83 -16
-5 -14 -29 4 -36 8 -3 15 0 15 6 0 7 27 -28 60 -76 33 -49 73 -105 89 -125 16
-20 29 -38 29 -41 0 -13 26 -60 32 -60 4 0 10 -9 13 -20 3 -11 2 -20 -1 -20
-13 0 -67 63 -67 79 0 9 -7 16 -16 16 -9 0 -24 7 -34 15 -16 13 -16 15 4 31
14 12 18 20 10 25 -6 3 -15 1 -19 -6 -4 -7 -15 -10 -23 -7 -20 8 -117 154
-117 178 0 10 -5 19 -11 19 -5 0 -24 30 -40 68 -42 91 -47 103 -55 132 -6 22
-5 23 10 8 9 -9 16 -22 16 -28 0 -6 4 -9 9 -6 4 3 7 18 4 33 l-3 28 10 -25 c6
-14 29 -61 52 -105z m1798 105 c0 -5 -5 -10 -11 -10 -5 0 -7 5 -4 10 3 6 8 10
11 10 2 0 4 -4 4 -10z m634 -14 c-3 -9 -12 -16 -20 -16 -20 0 -17 28 4 32 22
5 24 4 16 -16z m48 -59 c-49 -49 -57 -11 -10 49 l22 27 10 -22 c8 -18 4 -27
-22 -54z m-734 26 c-2 -9 -8 -18 -15 -20 -7 -3 -9 3 -6 16 6 25 26 28 21 4z
m387 -23 c-16 -31 -35 -40 -35 -16 0 11 34 43 48 45 1 1 -4 -12 -13 -29z m-80
-82 c0 -38 -7 -49 -77 -123 -107 -113 -232 -197 -379 -255 -42 -17 -54 -18
-67 -8 -13 11 -15 10 -9 -5 6 -15 3 -17 -14 -12 -15 5 -19 4 -15 -4 5 -7 -1
-11 -14 -11 -17 0 -20 4 -15 20 4 11 2 20 -4 20 -6 0 -16 -9 -23 -20 -15 -24
-55 -27 -55 -4 0 10 7 14 19 11 10 -3 18 -2 18 2 0 4 26 15 58 25 62 19 133
46 199 78 23 11 48 16 54 12 7 -4 9 -3 6 3 -4 6 19 30 51 54 75 56 208 185
233 226 27 44 35 42 34 -9z m-805 4 c0 -11 -12 -24 -26 -31 -25 -11 -25 -12
-10 -36 9 -14 13 -25 9 -25 -5 0 -1 -4 6 -9 9 -6 22 -6 33 0 10 5 18 6 18 2 0
-18 -34 -93 -42 -93 -5 0 -6 -4 -3 -10 3 -5 2 -10 -3 -10 -14 0 -25 34 -13 38
19 6 12 50 -11 69 -32 26 -49 59 -42 80 4 13 3 15 -4 5 -7 -11 -10 -10 -16 3
-11 29 -7 32 49 34 48 1 55 -1 55 -17z m70 8 c0 -20 -29 -80 -38 -80 -6 0 -9
10 -9 23 1 12 -2 32 -7 45 -7 20 -4 22 23 22 17 0 31 -5 31 -10z m1044 -16 c4
-10 1 -14 -6 -12 -15 5 -23 28 -10 28 5 0 13 -7 16 -16z m66 6 c0 -5 -5 -10
-11 -10 -6 0 -3 -7 6 -16 10 -10 13 -24 9 -38 -11 -35 -35 -66 -51 -66 -10 0
-13 -6 -9 -16 7 -18 -13 -49 -102 -157 -112 -135 -271 -257 -447 -342 -126
-61 -207 -88 -217 -73 -5 9 -12 7 -27 -8 -13 -14 -42 -26 -84 -33 -90 -16
-111 -15 -103 5 4 10 1 14 -6 11 -7 -2 -12 -11 -12 -19 1 -13 -17 -17 -93 -23
-96 -7 -123 0 -123 31 0 8 -5 14 -11 14 -7 0 -9 -9 -6 -21 5 -20 3 -21 -76
-14 -135 11 -237 36 -237 58 0 8 3 8 11 0 12 -12 39 -6 50 9 3 5 53 2 115 -7
111 -17 338 -24 350 -12 4 4 21 7 38 7 17 0 76 11 131 24 55 14 102 23 104 20
2 -2 -1 -4 -7 -4 -7 0 -12 -6 -12 -14 0 -8 9 -13 24 -12 13 0 24 3 24 6 -3 40
25 65 44 39 8 -11 9 -10 4 3 -4 15 14 28 44 33 3 0 26 13 53 28 26 15 68 39
95 54 128 72 306 235 402 368 33 45 56 69 67 67 12 -3 14 2 10 18 -4 16 -2 20
9 16 11 -4 14 -1 9 13 -6 20 13 71 27 71 4 0 8 -4 8 -10z m30 -10 c0 -5 -2
-10 -4 -10 -3 0 -8 5 -11 10 -3 6 -1 10 4 10 6 0 11 -4 11 -10z m-127 -65 c-3
-9 -8 -14 -10 -11 -3 3 -2 9 2 15 9 16 15 13 8 -4z m-28 -5 c3 -5 -1 -10 -10
-10 -9 0 -13 5 -10 10 3 6 8 10 10 10 2 0 7 -4 10 -10z m-1 -28 c8 -14 -114
-161 -202 -244 -127 -119 -255 -199 -407 -257 -138 -52 -236 -77 -262 -66 -34
12 22 35 91 36 42 1 70 7 77 15 6 8 15 12 19 9 4 -3 10 1 13 9 7 16 95 48 110
39 5 -3 7 -1 3 5 -4 6 19 23 56 42 35 18 97 55 138 83 82 56 285 252 315 305
19 31 38 41 49 24z m-1724 -67 c14 -16 10 -18 -14 -9 -9 3 -16 10 -16 15 0 14
16 11 30 -6z m109 -115 c7 10 6 19 -2 29 -10 12 -9 13 9 3 26 -14 40 -31 53
-65 l11 -27 -42 21 c-77 39 -117 70 -111 85 4 11 14 4 39 -23 27 -31 35 -35
43 -23z m105 54 c23 -9 20 -24 -4 -24 -11 0 -20 7 -20 15 0 17 2 18 24 9z
m178 -63 c46 -11 109 -22 142 -26 38 -5 53 -11 45 -16 -8 -5 -22 -6 -32 -3
-10 3 -24 0 -32 -6 -12 -10 -30 -8 -86 5 -40 10 -66 21 -59 25 8 5 7 9 -4 13
-8 3 -18 2 -22 -4 -6 -10 -24 -6 -81 18 -28 11 -32 17 -23 28 10 13 16 12 40
0 16 -8 66 -24 112 -34z m-140 -36 c0 -5 -5 -11 -11 -13 -6 -2 -11 4 -11 13 0
9 5 15 11 13 6 -2 11 -8 11 -13z m568 6 c0 -5 -7 -14 -15 -21 -13 -11 -18 -10
-29 5 -11 15 -16 16 -37 6 -23 -11 -23 -11 -5 3 21 17 86 22 86 7z m-117 -15
c5 -11 0 -13 -25 -5 -43 12 -47 19 -11 19 17 0 33 -6 36 -14z m-405 -33 c10
-10 18 -10 36 2 21 14 23 13 36 -10 8 -15 22 -25 35 -25 13 0 29 -8 36 -17 12
-15 12 -16 -6 -9 -11 4 -42 12 -70 18 -53 11 -135 44 -135 53 0 10 55 0 68
-12z m166 -11 c2 -4 0 -14 -5 -22 -8 -12 -12 -12 -16 -2 -2 6 -11 12 -19 12
-8 0 -14 5 -14 10 0 12 47 14 54 2z m-581 -47 c16 -20 32 -33 37 -30 25 15
125 -63 106 -82 -5 -6 -97 50 -119 72 -7 6 -20 14 -29 18 -10 3 -18 13 -18 22
0 8 -4 15 -10 15 -5 0 -10 5 -10 10 0 19 15 10 43 -25z m687 -2 c0 -7 -4 -13
-10 -13 -5 0 -10 12 -10 28 0 21 2 24 10 12 5 -8 10 -21 10 -27z m123 27 c-13
-5 -35 -11 -50 -13 -16 -2 -28 -9 -28 -15 0 -7 -3 -12 -7 -12 -5 0 -12 0 -17
0 -5 0 -8 10 -8 23 0 22 3 23 66 24 48 1 60 -1 44 -7z m-155 -22 c-3 -7 -13
-15 -23 -16 -15 -4 -16 -2 -4 12 17 19 32 21 27 4z m-778 -30 c0 -13 -23 -5
-28 10 -2 7 2 10 12 6 9 -3 16 -11 16 -16z m76 -46 c-11 -11 -18 -11 -35 -3
-29 16 -26 29 7 33 32 4 47 -12 28 -30z m64 -35 c0 -7 -4 -6 -10 3 -6 10 -10
11 -10 3 0 -7 -8 -13 -17 -13 -15 0 -14 2 2 14 21 15 35 12 35 -7z m58 -7 c28
-17 32 -23 22 -35 -9 -11 -17 -12 -31 -4 -17 9 -21 16 -18 35 0 4 -5 11 -13
15 -29 19 9 8 40 -11z m222 -32 c30 -10 32 -12 15 -24 -21 -15 -55 -2 -55 21
0 18 -1 18 40 3z m-32 -84 c-2 -14 -9 -24 -18 -24 -28 1 -100 39 -100 54 0 9
-7 12 -19 9 -10 -3 -22 1 -26 8 -5 7 -4 10 2 6 6 -4 13 2 16 13 5 19 8 18 76
-12 60 -26 70 -34 69 -54z m102 36 c0 -13 -20 -13 -40 0 -12 8 -9 10 13 10 15
0 27 -4 27 -10z m55 0 c11 -17 -5 -32 -21 -19 -7 6 -11 15 -8 20 7 12 21 11
29 -1z m119 -43 c-3 -7 0 -5 8 3 16 18 88 15 88 -4 0 -8 -18 -13 -55 -14 -53
-1 -73 8 -60 28 9 14 27 2 19 -13z m-49 3 c8 -13 -5 -13 -25 0 -13 8 -13 10 2
10 9 0 20 -4 23 -10z m325 -5 c0 -5 -12 -11 -27 -11 -16 -1 -52 -5 -80 -9 -50
-7 -53 -6 -53 14 0 21 4 22 80 19 45 -2 80 -7 80 -13z m72 3 c-9 -9 -15 -9
-24 0 -9 9 -7 12 12 12 19 0 21 -3 12 -12z m53 2 c3 -6 -4 -10 -17 -10 -18 0
-20 2 -8 10 19 12 18 12 25 0z m-591 -9 c3 -4 -3 -16 -13 -25 -13 -11 -21 -14
-26 -7 -3 6 -1 11 4 11 6 0 11 7 11 15 0 16 16 20 24 6z"/>
<path d="M4207 6746 c-17 -25 -13 -36 10 -36 8 0 13 8 11 18 -1 9 1 23 5 30
15 23 -11 12 -26 -12z"/>
<path d="M2953 6583 c-7 -2 -13 -14 -13 -26 0 -13 4 -17 8 -11 4 5 18 18 32
27 22 15 22 17 5 16 -11 0 -26 -3 -32 -6z"/>
<path d="M3156 6315 c-3 -9 0 -15 9 -15 8 0 15 7 15 15 0 8 -4 15 -9 15 -5 0
-11 -7 -15 -15z"/>
<path d="M5015 6411 c-3 -5 -1 -12 5 -16 5 -3 10 1 10 9 0 18 -6 21 -15 7z"/>
<path d="M5065 6340 c3 -5 8 -10 11 -10 2 0 4 5 4 10 0 6 -5 10 -11 10 -5 0
-7 -4 -4 -10z"/>
<path d="M4790 6141 c0 -17 18 -21 24 -6 3 9 0 15 -9 15 -8 0 -15 -4 -15 -9z"/>
<path d="M2630 6050 c0 -5 5 -10 11 -10 5 0 7 5 4 10 -3 6 -8 10 -11 10 -2 0
-4 -4 -4 -10z"/>
<path d="M3456 6095 c-9 -26 -7 -32 5 -12 6 10 9 21 6 23 -2 3 -7 -2 -11 -11z"/>
<path d="M3420 6024 c0 -9 5 -14 12 -12 18 6 21 28 4 28 -9 0 -16 -7 -16 -16z"/>
<path d="M4410 6075 c0 -8 5 -15 10 -15 6 0 10 7 10 15 0 8 -4 15 -10 15 -5 0
-10 -7 -10 -15z"/>
<path d="M3820 6114 c0 -8 5 -12 10 -9 6 3 10 10 10 16 0 5 -4 9 -10 9 -5 0
-10 -7 -10 -16z"/>
<path d="M3915 5990 c-3 -5 -1 -10 4 -10 6 0 11 5 11 10 0 6 -2 10 -4 10 -3 0
-8 -4 -11 -10z"/>
<path d="M3920 5900 c-9 -6 -10 -10 -3 -10 6 0 15 5 18 10 8 12 4 12 -15 0z"/>
<path d="M5285 5620 c-3 -5 -1 -10 4 -10 6 0 11 5 11 10 0 6 -2 10 -4 10 -3 0
-8 -4 -11 -10z"/>
<path d="M3915 5650 c3 -5 11 -10 16 -10 6 0 7 5 4 10 -3 6 -11 10 -16 10 -6
0 -7 -4 -4 -10z"/>
<path d="M4297 5403 c-10 -9 -9 -23 1 -23 5 0 9 7 9 15 0 17 -1 18 -10 8z"/>
<path d="M2650 5090 c0 -5 5 -10 10 -10 6 0 10 5 10 10 0 6 -4 10 -10 10 -5 0
-10 -4 -10 -10z"/>
<path d="M2655 5060 c3 -5 8 -10 11 -10 2 0 4 5 4 10 0 6 -5 10 -11 10 -5 0
-7 -4 -4 -10z"/>
</g>
</svg>
