<?xml version="1.0" encoding="UTF-8" standalone="no"?>
<svg
   xmlns:dc="http://purl.org/dc/elements/1.1/"
   xmlns:cc="http://creativecommons.org/ns#"
   xmlns:rdf="http://www.w3.org/1999/02/22-rdf-syntax-ns#"
   xmlns:svg="http://www.w3.org/2000/svg"
   xmlns="http://www.w3.org/2000/svg"
   xmlns:xlink="http://www.w3.org/1999/xlink"
   xmlns:sodipodi="http://sodipodi.sourceforge.net/DTD/sodipodi-0.dtd"
   xmlns:inkscape="http://www.inkscape.org/namespaces/inkscape"
   width="76mm"
   height="29mm"
   viewBox="0 0 76 29"
   version="1.1"
   id="svg8"
   sodipodi:docname="turtle-guardians.svg"
   inkscape:version="0.92.4 (5da689c313, 2019-01-14)">
  <sodipodi:namedview
     pagecolor="#ffffff"
     bordercolor="#666666"
     borderopacity="1"
     objecttolerance="10"
     gridtolerance="10"
     guidetolerance="10"
     inkscape:pageopacity="0"
     inkscape:pageshadow="2"
     inkscape:window-width="1920"
     inkscape:window-height="1001"
     id="namedview50"
     showgrid="false"
     inkscape:zoom="2.5065789"
     inkscape:cx="49.870815"
     inkscape:cy="26.517185"
     inkscape:window-x="-9"
     inkscape:window-y="-9"
     inkscape:window-maximized="1"
     inkscape:current-layer="layer1" />
  <defs
     id="defs2">
    <linearGradient
       id="linearGradient6277">
      <stop
         style="stop-color:#d9c138;stop-opacity:1;"
         offset="0"
         id="stop6273" />
      <stop
         style="stop-color:#089383;stop-opacity:1"
         offset="1"
         id="stop6275" />
    </linearGradient>
    <radialGradient
       xlink:href="#linearGradient6277"
       id="radialGradient6279"
       cx="12.221475"
       cy="15.247172"
       fx="12.221475"
       fy="15.247172"
       r="8.7074785"
       gradientTransform="matrix(1,0,0,1.120178,0,-1.8323753)"
       gradientUnits="userSpaceOnUse" />
  </defs>
  <metadata
     id="metadata5">
    <rdf:RDF>
      <cc:Work
         rdf:about="">
        <dc:format>image/svg+xml</dc:format>
        <dc:type
           rdf:resource="http://purl.org/dc/dcmitype/StillImage" />
        <dc:title />
      </cc:Work>
    </rdf:RDF>
  </metadata>
  <g
     inkscape:groupmode="layer"
     id="layer1"
     inkscape:label="Layer 1"
     style="display:inline">
    <g
       aria-label="Guardians"
       transform="matrix(0.26458334,0,0,0.26458334,0.83422399,-0.8651405)"
       style="font-style:normal;font-weight:normal;font-size:37.33333206px;line-height:1.25;font-family:sans-serif;letter-spacing:0px;word-spacing:0px;display:inline;opacity:1;fill:#e46130;fill-opacity:1;stroke:#000000;stroke-opacity:1"
       id="flowRoot868">
      <path
         d="M 91.489583,85.183378 V 79.623482 H 104.25 v 11.393229 q -3.66406,2.497396 -6.489584,3.408854 -2.807292,0.893229 -6.671875,0.893229 -4.757812,0 -7.765625,-1.622396 -2.989583,-1.622395 -4.648437,-4.830729 -1.640625,-3.208333 -1.640625,-7.364583 0,-4.375 1.804688,-7.601562 1.804687,-3.244791 5.286458,-4.921875 2.716145,-1.294271 7.309895,-1.294271 4.429688,0 6.617188,0.802084 2.205727,0.802083 3.645837,2.497396 1.45833,1.677083 2.1875,4.265624 l -7.96615,1.421875 q -0.492187,-1.51302 -1.677083,-2.315104 -1.166667,-0.802083 -2.989583,-0.802083 -2.716146,0 -4.338542,1.895833 -1.604167,1.877604 -1.604167,5.960937 0,4.338542 1.622396,6.197917 1.640625,1.859375 4.557292,1.859375 1.385416,0 2.643229,-0.401042 1.257812,-0.401041 2.880208,-1.367187 v -2.515625 z"
         style="font-style:normal;font-variant:normal;font-weight:bold;font-stretch:normal;font-size:37.33333206px;font-family:'Arial Black';-inkscape-font-specification:'Arial Black, Bold';fill:#e46130;fill-opacity:1;stroke:#000000;stroke-opacity:1"
         id="path841" />
      <path
         d="m 129.09635,94.863065 h -6.92708 v -3.135417 q -1.54948,1.932292 -3.13542,2.752605 -1.56771,0.820312 -3.86458,0.820312 -3.0625,0 -4.8125,-1.822917 Q 108.625,91.636503 108.625,87.826607 V 75.503691 h 7.45573 v 10.645833 q 0,1.822916 0.67448,2.588541 0.67448,0.765625 1.89583,0.765625 1.33073,0 2.16927,-1.020833 0.85677,-1.020833 0.85677,-3.664062 v -9.315104 h 7.41927 z"
         style="font-style:normal;font-variant:normal;font-weight:bold;font-stretch:normal;font-size:37.33333206px;font-family:'Arial Black';-inkscape-font-specification:'Arial Black, Bold';fill:#e46130;fill-opacity:1;stroke:#000000;stroke-opacity:1"
         id="path843" />
      <path
         d="m 140.39843,81.774524 -7.09114,-0.747396 q 0.40104,-1.859375 1.14844,-2.916667 0.76562,-1.07552 2.1875,-1.859374 1.02083,-0.565105 2.80729,-0.875 1.78646,-0.309896 3.86458,-0.309896 3.33594,0 5.35938,0.382812 2.02343,0.364584 3.37239,1.549479 0.94792,0.820313 1.49479,2.333334 0.54688,1.494791 0.54688,2.861979 v 8.549479 q 0,1.367187 0.16406,2.151041 0.18229,0.765625 0.76563,1.96875 h -6.96355 q -0.41927,-0.747396 -0.54687,-1.130208 -0.1276,-0.401042 -0.25521,-1.239584 -1.45833,1.403646 -2.89844,2.005209 -1.96875,0.802083 -4.57552,0.802083 -3.46354,0 -5.26823,-1.604167 -1.78645,-1.604166 -1.78645,-3.955729 0,-2.205729 1.29427,-3.627604 1.29427,-1.421875 4.77604,-2.114583 4.17448,-0.838542 5.41406,-1.166667 1.23958,-0.346354 2.625,-0.893229 0,-1.367187 -0.5651,-1.914062 -0.56511,-0.546875 -1.98698,-0.546875 -1.82292,0 -2.73438,0.583333 -0.71094,0.455729 -1.14844,1.713542 z m 6.4349,3.901041 q -1.53125,0.546875 -3.1901,0.966146 -2.26042,0.601563 -2.86198,1.184896 -0.61979,0.601562 -0.61979,1.367187 0,0.875 0.60156,1.440105 0.61979,0.546874 1.80469,0.546874 1.23958,0 2.29687,-0.601562 1.07552,-0.601562 1.51302,-1.458333 0.45573,-0.875 0.45573,-2.260417 z"
         style="font-style:normal;font-variant:normal;font-weight:bold;font-stretch:normal;font-size:37.33333206px;font-family:'Arial Black';-inkscape-font-specification:'Arial Black, Bold';fill:#e46130;fill-opacity:1;stroke:#000000;stroke-opacity:1"
         id="path845" />
      <path
         d="m 158.64583,75.503691 h 6.94531 v 3.171875 q 1.00261,-2.059896 2.0599,-2.825521 1.07552,-0.783854 2.64323,-0.783854 1.64062,0 3.59114,1.020833 l -2.29687,5.286458 q -1.3125,-0.546875 -2.07813,-0.546875 -1.45833,0 -2.26041,1.203125 -1.14844,1.695313 -1.14844,6.34375 v 6.489583 h -7.45573 z"
         style="font-style:normal;font-variant:normal;font-weight:bold;font-stretch:normal;font-size:37.33333206px;font-family:'Arial Black';-inkscape-font-specification:'Arial Black, Bold';fill:#e46130;fill-opacity:1;stroke:#000000;stroke-opacity:1"
         id="path847" />
      <path
         d="m 196.45312,68.139108 v 26.723957 h -6.94531 v -2.861979 q -1.45833,1.822917 -2.66146,2.460937 -1.60417,0.838542 -3.57292,0.838542 -3.95572,0 -6.05208,-3.007812 -2.07812,-3.007813 -2.07812,-7.309896 0,-4.8125 2.29687,-7.364583 2.31511,-2.552083 5.86979,-2.552083 1.73177,0 3.13542,0.583333 1.42187,0.583333 2.51562,1.75 v -9.260416 z m -7.4375,16.989582 q 0,-2.278645 -0.96614,-3.390625 -0.96615,-1.130208 -2.44271,-1.130208 -1.29427,0 -2.16927,1.075521 -0.875,1.075521 -0.875,3.609375 0,2.369791 0.89323,3.481771 0.91145,1.09375 2.24218,1.09375 1.42188,0 2.3698,-1.11198 0.94791,-1.111979 0.94791,-3.627604 z"
         style="font-style:normal;font-variant:normal;font-weight:bold;font-stretch:normal;font-size:37.33333206px;font-family:'Arial Black';-inkscape-font-specification:'Arial Black, Bold';fill:#e46130;fill-opacity:1;stroke:#000000;stroke-opacity:1"
         id="path849" />
      <path
         d="m 201.28385,68.139108 h 7.41927 v 5.049479 h -7.41927 z m 0,7.364583 h 7.41927 v 19.359374 h -7.41927 z"
         style="font-style:normal;font-variant:normal;font-weight:bold;font-stretch:normal;font-size:37.33333206px;font-family:'Arial Black';-inkscape-font-specification:'Arial Black, Bold';fill:#e46130;fill-opacity:1;stroke:#000000;stroke-opacity:1"
         id="path851" />
      <path
         d="m 220.24219,81.774524 -7.09114,-0.747396 q 0.40104,-1.859375 1.14843,-2.916667 0.76563,-1.07552 2.1875,-1.859374 1.02084,-0.565105 2.8073,-0.875 1.78645,-0.309896 3.86458,-0.309896 3.33594,0 5.35937,0.382812 2.02344,0.364584 3.3724,1.549479 0.94792,0.820313 1.49479,2.333334 0.54688,1.494791 0.54688,2.861979 v 8.549479 q 0,1.367187 0.16406,2.151041 0.18229,0.765625 0.76562,1.96875 h -6.96354 q -0.41927,-0.747396 -0.54687,-1.130208 -0.12761,-0.401042 -0.25521,-1.239584 -1.45833,1.403646 -2.89844,2.005209 -1.96875,0.802083 -4.57552,0.802083 -3.46354,0 -5.26823,-1.604167 -1.78646,-1.604166 -1.78646,-3.955729 0,-2.205729 1.29427,-3.627604 1.29427,-1.421875 4.77605,-2.114583 4.17447,-0.838542 5.41406,-1.166667 1.23958,-0.346354 2.625,-0.893229 0,-1.367187 -0.56511,-1.914062 -0.5651,-0.546875 -1.98698,-0.546875 -1.82291,0 -2.73437,0.583333 -0.71094,0.455729 -1.14844,1.713542 z m 6.4349,3.901041 q -1.53125,0.546875 -3.19011,0.966146 -2.26041,0.601563 -2.86198,1.184896 -0.61979,0.601562 -0.61979,1.367187 0,0.875 0.60157,1.440105 0.61979,0.546874 1.80468,0.546874 1.23959,0 2.29688,-0.601562 1.07552,-0.601562 1.51302,-1.458333 0.45573,-0.875 0.45573,-2.260417 z"
         style="font-style:normal;font-variant:normal;font-weight:bold;font-stretch:normal;font-size:37.33333206px;font-family:'Arial Black';-inkscape-font-specification:'Arial Black, Bold';fill:#e46130;fill-opacity:1;stroke:#000000;stroke-opacity:1"
         id="path853" />
      <path
         d="m 238.41667,75.503691 h 6.90886 v 3.153645 q 1.54947,-1.932291 3.13541,-2.752604 1.58594,-0.838541 3.86459,-0.838541 3.08072,0 4.8125,1.841145 1.75,1.822917 1.75,5.651042 V 94.863065 H 251.4323 V 84.217232 q 0,-1.822917 -0.67448,-2.570312 -0.67448,-0.765625 -1.89584,-0.765625 -1.34895,0 -2.1875,1.020833 -0.83854,1.020833 -0.83854,3.664062 v 9.296875 h -7.41927 z"
         style="font-style:normal;font-variant:normal;font-weight:bold;font-stretch:normal;font-size:37.33333206px;font-family:'Arial Black';-inkscape-font-specification:'Arial Black, Bold';fill:#e46130;fill-opacity:1;stroke:#000000;stroke-opacity:1"
         id="path855" />
      <path
         d="m 262.04167,89.50369 7.36458,-0.692708 q 0.45573,1.3125 1.27605,1.877604 0.82031,0.565104 2.1875,0.565104 1.49479,0 2.3151,-0.638021 0.63802,-0.473958 0.63802,-1.184895 0,-0.802084 -0.83854,-1.239584 -0.60156,-0.309896 -3.1901,-0.765625 -3.86459,-0.674479 -5.37761,-1.239583 -1.49479,-0.583333 -2.53385,-1.950521 -1.02084,-1.367187 -1.02084,-3.117187 0,-1.914063 1.11198,-3.299479 1.11198,-1.385417 3.0625,-2.059896 1.95052,-0.692708 5.23177,-0.692708 3.46355,0 5.10417,0.528646 1.65885,0.528645 2.7526,1.640624 1.11198,1.11198 1.84115,3.007813 l -7.03646,0.692708 q -0.27344,-0.929687 -0.91146,-1.367187 -0.875,-0.583334 -2.11458,-0.583334 -1.25781,0 -1.84115,0.45573 -0.5651,0.4375 -0.5651,1.07552 0,0.710938 0.72917,1.075521 0.72916,0.364583 3.17187,0.65625 3.70052,0.419271 5.50521,1.166667 1.80469,0.747396 2.7526,2.132812 0.96615,1.385417 0.96615,3.044271 0,1.677083 -1.02083,3.263021 -1.00261,1.585937 -3.19011,2.533854 -2.16927,0.929687 -5.92448,0.929687 -5.30468,0 -7.5651,-1.513021 -2.24219,-1.51302 -2.88021,-4.302083 z"
         style="font-style:normal;font-variant:normal;font-weight:bold;font-stretch:normal;font-size:37.33333206px;font-family:'Arial Black';-inkscape-font-specification:'Arial Black, Bold';fill:#e46130;fill-opacity:1;stroke:#000000;stroke-opacity:1"
         id="path857" />
    </g>
    <g
       transform="translate(-2.0290891,-0.16024319)"
       id="layer2"
       style="display:inline;opacity:1">
      <path
         style="fill:#00853f;fill-opacity:1;stroke:#000000;stroke-width:0.26458332px;stroke-linecap:butt;stroke-linejoin:round;stroke-opacity:1"
         d="m 4.8339492,10.346984 c 0,0 -1.2143962,-0.335896 -1.550293,-2.480468 L 4.0329645,7.7890013 4.1363173,6.8588255 4.808111,6.9363401 5.0406549,6.0061643 c 0,0 1.6794841,0.5426026 2.1187337,1.4211019 0,0 -1.3694254,1.2660717 -2.3254394,2.9197178 z"
         id="path6127"
         inkscape:connector-curvature="0" />
      <path
         style="display:inline;fill:#00853f;fill-opacity:1;stroke:#000000;stroke-width:0.26499999;stroke-linecap:butt;stroke-linejoin:round;stroke-miterlimit:4;stroke-dasharray:none;stroke-opacity:1"
         d="m 19.59061,10.383978 c 0,0 1.214396,-0.335897 1.550293,-2.4804683 L 20.391595,7.8259947 20.288242,6.8958189 19.616448,6.9733339 19.383905,6.043158 c 0,0 -1.679484,0.5426026 -2.118734,1.421102 0,0 1.369425,1.2660717 2.325439,2.919718 z"
         id="path6127-3"
         inkscape:connector-curvature="0" />
      <path
         style="display:inline;fill:#00853f;fill-opacity:1;stroke:#000000;stroke-width:0.26458332px;stroke-linecap:butt;stroke-linejoin:round;stroke-opacity:1"
         d="m 4.9599973,20.183576 c 0,0 -1.2143962,0.335896 -1.550293,2.480468 l 0.7493083,0.07751 0.1033528,0.930175 0.6717937,-0.07751 0.2325439,0.930176 c 0,0 1.6794842,-0.542603 2.1187338,-1.421102 0,0 -1.3694254,-1.266072 -2.3254395,-2.919718 z"
         id="path6127-6"
         inkscape:connector-curvature="0" />
      <path
         style="display:inline;fill:#00853f;fill-opacity:1;stroke:#000000;stroke-width:0.26458332px;stroke-linecap:butt;stroke-linejoin:round;stroke-opacity:1"
         d="m 19.555972,20.140596 c 0,0 1.214397,0.335896 1.550293,2.480468 l -0.749308,0.07751 -0.103353,0.930175 -0.671793,-0.07751 -0.232544,0.930176 c 0,0 -1.679485,-0.542603 -2.118734,-1.421102 0,0 1.369425,-1.266072 2.325439,-2.919718 z"
         id="path6127-6-7"
         inkscape:connector-curvature="0" />
      <path
         style="fill:#00853f;fill-opacity:1;stroke:#000000;stroke-width:0.26499999;stroke-linecap:round;stroke-linejoin:round;stroke-miterlimit:4;stroke-dasharray:none;stroke-opacity:1"
         d="m 10.816064,24.625205 2.777097,-0.01827 -1.260656,3.909861 z"
         id="path6195"
         inkscape:connector-curvature="0" />
      <path
         style="fill:#00853f;fill-opacity:1;stroke:#000000;stroke-width:0.27525884;stroke-linecap:butt;stroke-linejoin:round;stroke-miterlimit:4;stroke-dasharray:none;stroke-opacity:1"
         d="m 9.6634928,6.188744 c 0,0 0.2583821,-3.401051 2.5321452,-4.2094975 0,0 2.530287,0.581326 2.457205,4.2872472 z"
         id="path6197"
         inkscape:connector-curvature="0" />
      <ellipse
         style="display:inline;fill:url(#radialGradient6279);fill-opacity:1;stroke:#000001;stroke-width:0.26458334;stroke-miterlimit:4;stroke-dasharray:none;stroke-opacity:1"
         id="path6125"
         cx="12.221475"
         cy="15.247172"
         rx="8.7074785"
         ry="9.7539263" />
      <g
         id="flowRoot6215"
         style="font-style:normal;font-variant:normal;font-weight:normal;font-stretch:normal;font-size:40px;line-height:1.25;font-family:'Arial Black';-inkscape-font-specification:'Arial Black, ';letter-spacing:0px;word-spacing:0px;fill:#e46130;fill-opacity:1;stroke:#000000;stroke-width:1;stroke-miterlimit:4;stroke-dasharray:none;stroke-opacity:1"
         transform="matrix(0.26458333,0,0,0.26458333,-0.41341148,-1.1368816)"
         aria-label="Turtle">
        <path
           id="path1053"
           style="font-size:37.33333206px;fill:#e46130;fill-opacity:1;stroke:#000000;stroke-width:1;stroke-miterlimit:4;stroke-dasharray:none;stroke-opacity:1"
           d="m 88.356771,31.854044 h 25.101559 v 6.598958 h -8.42187 v 20.125 h -8.257814 v -20.125 h -8.421875 z"
           inkscape:connector-curvature="0" />
        <path
           id="path1055"
           style="font-size:37.33333206px;fill:#e46130;fill-opacity:1;stroke:#000000;stroke-width:1;stroke-miterlimit:4;stroke-dasharray:none;stroke-opacity:1"
           d="m 135.51562,58.578002 h -6.92708 v -3.135417 q -1.54948,1.932292 -3.13542,2.752604 -1.56771,0.820313 -3.86458,0.820313 -3.0625,0 -4.8125,-1.822917 -1.73177,-1.841146 -1.73177,-5.651041 V 39.218627 H 122.5 V 49.86446 q 0,1.822917 0.67448,2.588542 0.67448,0.765625 1.89583,0.765625 1.33073,0 2.16927,-1.020833 0.85677,-1.020834 0.85677,-3.664063 v -9.315104 h 7.41927 z"
           inkscape:connector-curvature="0" />
        <path
           id="path1057"
           style="font-size:37.33333206px;fill:#e46130;fill-opacity:1;stroke:#000000;stroke-width:1;stroke-miterlimit:4;stroke-dasharray:none;stroke-opacity:1"
           d="m 140.1276,39.218627 h 6.94532 v 3.171875 q 1.0026,-2.059896 2.05989,-2.825521 1.07552,-0.783854 2.64323,-0.783854 1.64063,0 3.59115,1.020834 l -2.29688,5.286458 q -1.3125,-0.546875 -2.07812,-0.546875 -1.45834,0 -2.26042,1.203125 -1.14844,1.695312 -1.14844,6.34375 v 6.489583 h -7.45573 z"
           inkscape:connector-curvature="0" />
        <path
           id="path1059"
           style="font-size:37.33333206px;fill:#e46130;fill-opacity:1;stroke:#000000;stroke-width:1;stroke-miterlimit:4;stroke-dasharray:none;stroke-opacity:1"
           d="m 167.45312,31.854044 v 7.364583 h 4.08334 v 5.414063 h -4.08334 v 6.872395 q 0,1.239584 0.23698,1.640625 0.36458,0.619792 1.27604,0.619792 0.82032,0 2.29688,-0.473959 l 0.54687,5.122396 q -2.7526,0.601563 -5.14062,0.601563 -2.77084,0 -4.08334,-0.710938 -1.3125,-0.710937 -1.95052,-2.151041 -0.61979,-1.458334 -0.61979,-4.703125 V 44.63269 h -2.73437 v -5.414063 h 2.73437 V 35.66394 Z"
           inkscape:connector-curvature="0" />
        <path
           id="path1061"
           style="font-size:37.33333206px;fill:#e46130;fill-opacity:1;stroke:#000000;stroke-width:1;stroke-miterlimit:4;stroke-dasharray:none;stroke-opacity:1"
           d="m 175.3099,31.854044 h 7.4375 v 26.723958 h -7.4375 z"
           inkscape:connector-curvature="0" />
        <path
           id="path1063"
           style="font-size:37.33333206px;fill:#e46130;fill-opacity:1;stroke:#000000;stroke-width:1;stroke-miterlimit:4;stroke-dasharray:none;stroke-opacity:1"
           d="m 209.01562,50.73946 h -14.875 q 0.20053,1.786459 0.96615,2.661458 1.07552,1.257813 2.80729,1.257813 1.09375,0 2.07813,-0.546875 0.60156,-0.346354 1.29427,-1.221354 l 7.30989,0.674479 q -1.67708,2.916667 -4.04687,4.192708 -2.36979,1.257813 -6.79948,1.257813 -3.84635,0 -6.05208,-1.075521 -2.20573,-1.09375 -3.66407,-3.445313 -1.4401,-2.369791 -1.4401,-5.559895 0,-4.539063 2.89844,-7.346354 2.91666,-2.807292 8.03906,-2.807292 4.15625,0 6.5625,1.257813 2.40625,1.257812 3.66406,3.645833 1.25781,2.388021 1.25781,6.216146 z m -7.54687,-3.554687 q -0.21875,-2.151042 -1.16667,-3.080729 -0.92968,-0.929688 -2.46093,-0.929688 -1.76823,0 -2.82553,1.403646 -0.67447,0.875 -0.85677,2.606771 z"
           inkscape:connector-curvature="0" />
      </g>
      <path
         style="opacity:1;fill:#000007;fill-opacity:1;stroke:#000000;stroke-width:0.26499999;stroke-linecap:round;stroke-linejoin:round;stroke-miterlimit:4;stroke-dasharray:none;stroke-opacity:1"
         d="m 4.830028,14.66644 c 0,0 -1.0896199,-2.477538 2.9619635,-6.301773 0,0 2.3297975,-1.9002172 4.3212695,-1.7175134 0,0 2.777097,-0.2740557 5.35322,2.3934195 2.576124,2.6674749 2.137635,6.2301989 2.137635,6.2301989 0,0 0.07308,-1.881849 -2.283798,-5.006084 0,0 -1.644334,-2.101093 -4.403161,-2.2837968 V 21.738486 H 11.418986 V 7.9991616 c 0,0 -1.6443338,-0.3471372 -4.1108348,1.9914712 C 4.8416502,12.329241 4.830028,14.66644 4.830028,14.66644 Z"
         id="path6286"
         inkscape:connector-curvature="0" />
      <path
         style="fill:#00001c;fill-opacity:1;stroke:#000000;stroke-width:0.26499999;stroke-linecap:round;stroke-linejoin:round;stroke-miterlimit:4;stroke-dasharray:none;stroke-opacity:1"
         d="m 5.0243538,16.62278 c 0,0 0.9689793,3.483642 3.3898042,4.881326 2.187065,1.26272 3.85505,1.086818 3.85505,1.086818 0,0 2.29488,0.05798 3.793051,-1.495037 1.498171,-1.552982 1.879252,-3.084559 1.879252,-3.084559 h -2.44823 l 0.401948,-1.205844 h 3.580994 c 0,0 -0.347137,1.753956 -1.699145,3.982942 0,0 -1.479901,1.991471 -3.489642,2.612664 -2.009742,0.621193 -4.7685691,-0.164432 -5.1887878,-0.47503 0,0 -1.7265506,-0.913518 -2.6766104,-2.256391 C 6.0558339,20.152054 5.6314134,19.476068 5.4072768,18.762747 5.0698221,17.688789 5.0243538,16.62278 5.0243538,16.62278 Z"
         id="path6288"
         inkscape:connector-curvature="0" />
      <flowRoot
         xml:space="preserve"
         id="flowRoot856"
         style="font-style:normal;font-weight:normal;font-size:21.33333397px;line-height:1.25;font-family:sans-serif;letter-spacing:0px;word-spacing:0px;fill:#000000;fill-opacity:1;stroke:none"><flowRegion
           id="flowRegion858"><rect
             id="rect860"
             width="215.24257"
             height="58.394772"
             x="78.423897"
             y="58.546135" /></flowRegion><flowPara
           id="flowPara862" /></flowRoot>    </g>
  </g>
</svg>
